:SAMPLES-PER-SECOND 30
:FULLY-SPECIFIED
:DEGREES
33
root  67.1273 38.5643 -4.98638 -116.811 -86.8746 111.917
RightUpLeg  -22.2443 -13.0975 -2.96551
RightLeg  8.13001 -10.5945 2.84916
RightFoot  -5.48909 -0.357989 6.25627
RightToes  5.82063e-011 0 -3.6325e-017
Spine  12.7709 -2.42258 -4.94837
Spine1  12.7204 -4.04775 2.31976
HEad  -13.1541 6.66573 -1.67293
LeftShoulder1  9.07366 -13.4521 -46.6892
LeftArm  2.79185 -4.01532 -32.9107
LeftForeArm  36.887 -33.4752 -5.31683
LeftHand  -0.244104 0.0205437 5.32207
RightShoulder  4.72841 8.39732 33.7848
RightArm  0.519451 -20.1124 44.1518
RightForeArm  31.4868 14.4953 5.75352
RightHand  -0.0324771 -5.45665 2.01382
LeftUpLeg  13.8546 8.19484 -1.5188
LeftLeg  13.2805 16.5165 -0.750566
LeftFoot  -21.531 -0.144194 -3.06055
LeftToes  -1.33699e-010 -8.10125e-011 -3.35536e-011
34
root  65.9996 38.3336 -5.00426 -104.085 -87.1731 99.486
RightUpLeg  -22.8685 -12.1836 -3.40694
RightLeg  7.12087 -11.9732 3.30529
RightFoot  -5.20544 -0.375244 6.32112
RightToes  5.82063e-011 0 -3.6325e-017
Spine  13.3316 -2.94286 -4.69889
Spine1  12.3184 -4.65226 2.5257
HEad  -14.6251 6.65067 -1.51814
LeftShoulder1  9.16387 -13.6279 -46.6694
LeftArm  2.56634 -6.12365 -34.6775
LeftForeArm  37.6232 -35.0899 -5.67732
LeftHand  -0.244104 0.0205437 5.32207
RightShoulder  4.72448 8.43827 33.6169
RightArm  -0.881829 -19.9933 43.0539
RightForeArm  32.1488 13.6606 5.85422
RightHand  -0.014336 -4.59779 1.80337
LeftUpLeg  15.441 8.27716 -0.968644
LeftLeg  13.2688 15.2577 -0.848953
LeftFoot  -22.5608 -0.258857 -3.99867
LeftToes  -1.33699e-010 -8.10125e-011 -3.35536e-011
35
root  64.7378 38.1091 -5.09368 -89.2051 -87.7069 84.9668
RightUpLeg  -23.8087 -13.405 -2.14295
RightLeg  8.90486 -10.5604 2.30927
RightFoot  -4.71355 -0.376437 5.94402
RightToes  5.82063e-011 0 -3.6325e-017
Spine  13.7207 -3.32907 -4.18387
Spine1  11.8479 -5.21987 3.22001
HEad  -15.9011 6.39062 -1.59008
LeftShoulder1  9.23075 -13.7288 -46.7367
LeftArm  2.67453 -7.91169 -36.2956
LeftForeArm  36.4593 -35.5579 -5.86266
LeftHand  -0.244104 0.0205437 5.32207
RightShoulder  4.68142 8.39432 33.4021
RightArm  -3.35163 -19.4428 41.7949
RightForeArm  32.4284 12.3279 5.8853
RightHand  -0.0180047 -4.62727 1.12511
LeftUpLeg  17.1074 9.03587 0.548009
LeftLeg  13.5098 12.981 -0.890983
LeftFoot  -23.2369 -0.451403 -5.67302
LeftToes  -1.33699e-010 -8.10125e-011 -3.35536e-011
36
root  63.3589 37.9655 -5.24811 -61.564 -88.2407 57.8316
RightUpLeg  -24.9496 -16.0404 0.349427
RightLeg  12.2383 -8.58214 0.499944
RightFoot  -3.2288 -0.267262 3.52978
RightToes  5.82063e-011 0 -3.6325e-017
Spine  13.6916 -3.64477 -3.34793
Spine1  11.6374 -5.77758 4.22273
HEad  -16.9406 6.23939 -1.74579
LeftShoulder1  9.27632 -13.81 -46.7477
LeftArm  3.20306 -9.32287 -37.6247
LeftForeArm  36.0706 -35.2529 -5.80696
LeftHand  -0.244104 0.0205437 5.32207
RightShoulder  4.58876 8.16221 33.3916
RightArm  -6.23071 -18.2952 40.4351
RightForeArm  32.0248 10.4119 5.77291
RightHand  -0.0296418 -4.80988 -0.540475
LeftUpLeg  18.5774 10.3964 2.76423
LeftLeg  14.1246 10.1076 -0.515914
LeftFoot  -22.7359 -0.591291 -7.28693
LeftToes  -1.33699e-010 -8.10125e-011 -3.35536e-011
37
root  61.8635 37.8939 -5.42743 -21.3157 -88.5842 18.0661
RightUpLeg  -26.0804 -18.6903 3.24898
RightLeg  16.0129 -6.46614 -1.29624
RightFoot  -0.878714 -0.0166976 0.122119
RightToes  5.82063e-011 0 -3.6325e-017
Spine  13.46 -3.91028 -1.59077
Spine1  11.5512 -5.99658 4.65686
HEad  -17.8163 6.15665 -1.77614
LeftShoulder1  9.33514 -13.9177 -46.7534
LeftArm  3.56326 -10.0045 -38.4206
LeftForeArm  37.0407 -34.7199 -5.61744
LeftHand  -0.244104 0.0205437 5.32207
RightShoulder  4.49991 7.8596 33.6545
RightArm  -9.03435 -16.7961 39.1453
RightForeArm  31.4629 8.34848 5.26815
RightHand  -0.0523124 -3.99453 -2.59904
LeftUpLeg  19.8531 12.2042 5.39118
LeftLeg  15.3785 6.63565 0.317885
LeftFoot  -21.3755 -0.768316 -10.1994
LeftToes  -1.33699e-010 -8.10125e-011 -3.35536e-011
38
root  60.273 37.8264 -5.61139 33.3451 -88.8213 -36.3462
RightUpLeg  -26.6934 -19.2581 5.31582
RightLeg  20.0403 -4.86778 -2.25974
RightFoot  0.825919 0.257408 -2.38578
RightToes  5.82063e-011 0 -3.6325e-017
Spine  13.4093 -4.08918 1.29941
Spine1  11.3835 -5.60606 4.03093
HEad  -18.5694 6.0179 -1.80842
LeftShoulder1  9.3945 -14.0225 -46.7699
LeftArm  3.32628 -9.56762 -38.4849
LeftForeArm  37.8687 -34.3913 -5.48951
LeftHand  -0.244104 0.0205437 5.32207
RightShoulder  4.53499 7.84665 34.0042
RightArm  -11.509 -15.351 38.1148
RightForeArm  29.9734 6.85726 4.51492
RightHand  -0.11185 -2.88945 -4.61726
LeftUpLeg  20.638 13.6799 7.97116
LeftLeg  18.1503 3.86992 1.40317
LeftFoot  -19.1967 -0.92146 -15.2169
LeftToes  -1.33699e-010 -8.10125e-011 -3.35536e-011
39
root  58.6643 37.7736 -5.81913 92.9555 -88.2049 -95.8298
RightUpLeg  -26.4108 -18.0683 6.28345
RightLeg  23.8592 -4.32089 -2.31234
RightFoot  0.619739 0.418294 -3.96726
RightToes  5.82063e-011 0 -3.6325e-017
Spine  13.5733 -4.18654 4.46439
Spine1  11.1383 -4.88251 2.97276
HEad  -19.165 6.02878 -2.19573
LeftShoulder1  9.40735 -14.0827 -46.671
LeftArm  2.49245 -8.05045 -37.9606
LeftForeArm  37.5799 -34.2809 -5.47803
LeftHand  -0.244104 0.0205437 5.32207
RightShoulder  4.71298 8.24151 34.1771
RightArm  -13.5143 -13.9778 37.4235
RightForeArm  26.8082 6.34106 4.06196
RightHand  -0.162983 -2.64096 -6.47263
LeftUpLeg  19.3119 12.6532 9.25407
LeftLeg  24.3346 5.54724 3.18554
LeftFoot  -14.0933 -0.371325 -18.6126
LeftToes  -1.33699e-010 -8.10125e-011 -3.35536e-011
40
root  57.1253 37.7694 -6.0605 107.923 -87.0068 -110.561
RightUpLeg  -25.6515 -17.9251 7.33393
RightLeg  26.8461 -3.61 -2.22054
RightFoot  -1.41715 0.448816 -5.2829
RightToes  5.82063e-011 0 -3.6325e-017
Spine  13.7796 -4.18738 7.0179
Spine1  10.9131 -4.26958 2.47058
HEad  -19.6815 6.29014 -2.88953
LeftShoulder1  9.38524 -14.1072 -46.492
LeftArm  1.42404 -6.04537 -37.1851
LeftForeArm  36.655 -34.0641 -5.47527
LeftHand  -0.244104 0.0205437 5.32207
RightShoulder  4.87683 8.68534 34.0616
RightArm  -14.4274 -12.2201 37.0288
RightForeArm  22.8388 6.85154 4.13262
RightHand  -0.18704 -2.76562 -7.79992
LeftUpLeg  14.8105 10.8222 9.56269
LeftLeg  34.4462 8.73447 6.77812
LeftFoot  -4.33038 0.931807 -15.8066
LeftToes  -1.33699e-010 -8.10125e-011 -3.35536e-011
41
root  55.7357 37.7384 -6.29943 107.354 -85.8725 -109.705
RightUpLeg  -24.7808 -18.3144 8.42896
RightLeg  29.3475 -3.39826 -2.31333
RightFoot  -4.29827 0.343916 -6.02823
RightToes  5.82063e-011 0 -3.6325e-017
Spine  14.1267 -4.14678 9.2507
Spine1  10.8597 -3.77881 2.74849
HEad  -20.2659 6.49495 -3.49455
LeftShoulder1  9.40114 -14.129 -46.5137
LeftArm  0.545143 -4.18129 -36.2521
LeftForeArm  35.8109 -33.6017 -5.40779
LeftHand  -0.244104 0.0205437 5.32207
RightShoulder  4.89586 8.79783 33.8517
RightArm  -14.2754 -9.66225 36.6812
RightForeArm  20.0545 8.34046 4.55686
RightHand  -0.230857 -2.27366 -8.31073
LeftUpLeg  8.20963 8.44393 9.45589
LeftLeg  45.7548 8.97059 10.0444
LeftFoot  5.99764 1.36589 -9.05154
LeftToes  -1.33699e-010 -8.10125e-011 -3.35536e-011
42
root  54.4253 37.7235 -6.51751 107.586 -84.8532 -109.898
RightUpLeg  -23.376 -18.3819 9.18038
RightLeg  31.1826 -3.29302 -2.40564
RightFoot  -6.95465 0.18521 -6.03771
RightToes  5.82063e-011 0 -3.6325e-017
Spine  14.6567 -3.97078 11.2569
Spine1  11.0719 -3.15014 3.16325
HEad  -20.9618 6.3234 -3.6478
LeftShoulder1  9.47369 -14.1456 -46.837
LeftArm  -0.027618 -2.50966 -35.0713
LeftForeArm  35.1358 -33.0906 -5.31996
LeftHand  -0.244104 0.0205437 5.32207
RightShoulder  4.84292 8.65499 33.8843
RightArm  -13.11 -6.38759 36.1439
RightForeArm  18.0907 10.7736 5.01166
RightHand  -0.310394 -1.29678 -8.69092
LeftUpLeg  1.71649 5.99823 9.15734
LeftLeg  55.2597 6.14365 9.85864
LeftFoot  10.0653 0.901238 -4.98223
LeftToes  -1.33699e-010 -8.10125e-011 -3.35536e-011
